<?xml version="1.0" standalone="no"?>
<!DOCTYPE svg PUBLIC "-//W3C//DTD SVG 20010904//EN"
 "http://www.w3.org/TR/2001/REC-SVG-20010904/DTD/svg10.dtd">
<svg version="1.0" xmlns="http://www.w3.org/2000/svg"
 width="512.000000pt" height="512.000000pt" viewBox="0 0 512.000000 512.000000"
 preserveAspectRatio="xMidYMid meet">
<metadata>
Created by potrace 1.14, written by Peter Selinger 2001-2017
</metadata>
<g transform="translate(0.000000,512.000000) scale(0.100000,-0.100000)"
fill="#000000" stroke="none">
<path d="M1390 4340 c0 -6 -130 -10 -370 -10 l-370 0 2 -1397 3 -1398 365 -3
c201 -1 380 0 398 3 l32 6 0 649 0 650 56 0 c36 0 61 -5 70 -15 9 -9 34 -15
60 -15 24 0 44 -4 44 -10 0 -5 12 -13 28 -16 15 -4 29 -10 32 -13 11 -13 73
-41 91 -41 10 0 19 -7 19 -15 0 -8 7 -15 15 -15 8 0 15 -7 15 -15 0 -9 9 -15
24 -15 17 0 26 -7 30 -25 4 -14 11 -25 16 -25 6 0 10 -7 10 -15 0 -8 7 -15 15
-15 8 0 15 -7 15 -15 0 -8 7 -15 15 -15 10 0 15 -10 15 -30 0 -16 4 -30 9 -30
5 0 12 -13 16 -30 4 -16 10 -30 14 -30 5 0 11 -30 14 -66 3 -37 10 -70 17 -74
10 -6 13 -92 12 -374 -1 -314 1 -368 14 -381 13 -13 68 -15 382 -15 353 0 368
1 384 20 15 17 17 54 20 300 1 154 6 280 11 280 14 0 37 -27 37 -43 0 -9 -6
-18 -12 -21 -10 -5 -10 -7 0 -12 6 -3 12 -18 12 -34 0 -16 -6 -31 -12 -34 -10
-5 -10 -7 0 -12 17 -8 17 -300 0 -308 -10 -5 -10 -7 0 -12 6 -3 12 -22 12 -42
0 -74 7 -82 65 -82 92 0 85 -26 85 306 l0 294 70 0 c56 0 70 3 70 15 0 12 17
15 90 15 73 0 90 3 90 15 0 11 13 15 54 15 31 0 56 5 58 11 2 6 26 13 53 17
27 3 56 11 63 19 7 7 20 13 28 13 8 0 14 5 14 10 0 6 14 10 30 10 20 0 30 5
30 15 0 8 9 15 20 15 11 0 20 7 20 15 0 9 9 15 25 15 16 0 25 6 25 15 0 10 10
15 29 15 16 0 36 7 45 15 8 8 17 15 21 15 3 0 16 11 29 25 13 14 28 25 35 25
6 0 11 7 11 15 0 8 7 15 15 15 8 0 15 7 15 15 0 9 9 15 25 15 16 0 25 6 25 15
0 8 7 15 15 15 9 0 18 7 21 15 4 8 12 15 20 15 8 0 14 7 14 15 0 8 4 15 9 15
5 0 12 11 15 25 4 14 11 25 16 25 6 0 10 7 10 15 0 8 7 15 15 15 8 0 15 7 15
15 0 8 7 15 15 15 8 0 15 7 15 15 0 8 7 15 15 15 8 0 15 7 15 15 0 8 5 15 10
15 6 0 10 7 10 15 0 8 9 23 20 32 11 10 20 28 20 40 0 13 5 23 10 23 6 0 10
14 10 30 0 20 5 30 15 30 9 0 15 9 15 25 0 16 6 25 15 25 10 0 15 10 15 29 0
16 5 31 10 33 6 2 13 21 17 43 3 22 12 46 20 53 7 7 13 26 13 42 0 16 5 30 10
32 6 2 13 28 17 58 3 30 11 58 16 61 13 9 12 559 -1 568 -5 3 -12 35 -16 71
-3 36 -11 67 -16 68 -6 2 -10 21 -10 43 0 26 -5 42 -15 45 -10 4 -15 20 -15
45 0 28 -4 39 -15 39 -12 0 -15 13 -15 55 0 53 0 54 -33 60 -18 4 -51 5 -72 3
l-40 -3 1 -54 c0 -33 5 -56 12 -59 7 -2 12 -21 12 -43 0 -26 5 -42 15 -45 10
-4 15 -20 15 -45 0 -26 5 -42 15 -45 11 -5 15 -22 15 -69 0 -42 4 -65 13 -67
9 -4 12 -66 12 -268 0 -202 -3 -264 -12 -267 -9 -3 -13 -27 -13 -74 0 -55 -3
-69 -15 -69 -10 0 -15 -10 -15 -29 0 -16 -5 -31 -11 -33 -5 -2 -13 -22 -16
-46 -3 -26 -11 -42 -19 -42 -9 0 -14 -11 -14 -30 0 -16 -4 -30 -10 -30 -5 0
-12 -11 -16 -25 -3 -14 -10 -25 -15 -25 -5 0 -9 -11 -9 -25 0 -14 -7 -28 -15
-31 -8 -4 -15 -17 -15 -30 0 -15 -6 -24 -15 -24 -8 0 -15 -7 -15 -15 0 -8 -7
-15 -15 -15 -8 0 -15 -7 -15 -15 0 -8 -7 -15 -15 -15 -8 0 -15 -6 -15 -14 0
-8 -7 -16 -15 -20 -8 -3 -15 -12 -15 -21 0 -17 -46 -65 -63 -65 -5 0 -20 -11
-33 -25 -13 -14 -28 -25 -34 -25 -5 0 -10 -7 -10 -15 0 -8 -7 -15 -15 -15 -8
0 -15 -7 -15 -15 0 -8 -5 -15 -11 -15 -7 0 -22 -11 -35 -25 -13 -14 -32 -25
-44 -25 -11 0 -20 -7 -20 -15 0 -10 -10 -15 -30 -15 -20 0 -30 -5 -30 -15 0
-22 -36 -19 -60 5 -27 27 -26 30 20 30 29 0 40 4 40 15 0 8 7 15 15 15 8 0 15
7 15 15 0 10 10 15 30 15 20 0 30 5 30 15 0 8 5 15 11 15 7 0 22 11 35 25 13
14 28 25 34 25 5 0 10 7 10 15 0 8 7 15 15 15 8 0 15 6 15 14 0 8 11 17 25 20
14 4 25 13 25 20 0 8 7 16 15 20 8 3 15 12 15 21 0 8 7 15 15 15 8 0 15 7 15
15 0 8 5 15 10 15 6 0 14 8 17 18 9 21 28 42 41 42 6 0 13 14 17 30 4 17 10
30 15 30 4 0 11 11 14 25 4 14 11 25 16 25 6 0 10 9 10 20 0 11 7 20 15 20 11
0 15 11 15 40 0 29 4 40 15 40 11 0 15 11 15 40 0 29 4 40 15 40 10 0 15 10
15 29 0 16 5 31 11 33 5 2 13 22 16 46 3 23 9 42 13 42 5 0 11 38 15 85 4 47
11 85 16 85 5 0 9 56 9 125 0 69 -4 125 -9 125 -4 0 -11 39 -14 87 -4 47 -10
89 -15 92 -5 3 -12 28 -15 56 -3 27 -10 51 -16 53 -6 2 -11 16 -11 32 0 16 -7
35 -15 44 -8 8 -15 32 -15 55 0 30 -4 41 -15 41 -11 0 -15 11 -15 40 0 29 -4
40 -15 40 -8 0 -15 9 -15 20 0 19 -5 21 -72 18 l-73 -3 3 -40 c2 -22 8 -41 13
-43 5 -2 9 -10 9 -18 0 -8 7 -14 15 -14 11 0 15 -12 15 -44 0 -26 6 -51 15
-60 9 -9 15 -34 15 -66 0 -36 4 -52 15 -56 11 -5 15 -21 15 -60 0 -41 4 -54
15 -54 13 0 15 -33 15 -240 0 -207 -2 -240 -15 -240 -11 0 -15 -12 -15 -45 0
-33 -4 -45 -15 -45 -11 0 -15 -13 -15 -54 0 -39 -4 -55 -15 -60 -8 -3 -15 -17
-15 -31 0 -16 -6 -25 -15 -25 -10 0 -15 -10 -15 -30 0 -16 -4 -30 -10 -30 -5
0 -12 -11 -16 -25 -3 -14 -10 -25 -15 -25 -5 0 -9 -7 -9 -15 0 -9 -7 -18 -15
-21 -8 -4 -15 -17 -15 -30 0 -15 -6 -24 -15 -24 -8 0 -15 -7 -15 -15 0 -8 -7
-15 -15 -15 -9 0 -15 -9 -15 -25 0 -16 -6 -25 -15 -25 -8 0 -15 -7 -15 -15 0
-8 -7 -15 -15 -15 -8 0 -15 -7 -15 -15 0 -9 -9 -15 -25 -15 -16 0 -25 -6 -25
-15 0 -8 -7 -15 -15 -15 -8 0 -15 -7 -15 -15 0 -8 -5 -15 -11 -15 -7 0 -22
-11 -35 -25 -13 -14 -32 -25 -44 -25 -11 0 -20 -7 -20 -15 0 -8 -9 -15 -19
-15 -11 0 -26 -7 -35 -15 -8 -8 -24 -15 -36 -15 -11 0 -23 -7 -26 -15 -4 -8
-17 -15 -30 -15 -15 0 -24 -6 -24 -15 0 -11 -12 -15 -45 -15 -33 0 -45 -4 -45
-15 0 -11 -11 -15 -40 -15 -22 0 -40 -4 -40 -10 0 -6 -27 -10 -60 -10 -47 0
-60 -3 -60 -15 0 -13 -25 -15 -169 -15 -126 0 -171 3 -175 13 -5 10 -7 10 -12
0 -10 -23 -34 -14 -34 12 l0 25 214 0 c177 0 217 3 230 15 8 8 31 15 51 15 20
0 43 7 51 15 9 8 29 15 45 15 16 0 29 5 29 10 0 6 11 10 25 10 14 0 28 7 31
15 4 9 19 15 35 15 19 0 29 5 29 15 0 9 9 15 25 15 14 0 28 7 31 15 4 8 17 15
30 15 15 0 24 6 24 15 0 9 9 15 23 15 13 0 36 16 57 40 19 22 41 40 48 40 6 0
12 7 12 15 0 8 7 15 15 15 8 0 15 7 15 15 0 8 7 15 15 15 8 0 15 7 15 15 0 8
7 15 15 15 8 0 15 7 15 15 0 8 7 15 15 15 8 0 15 7 15 15 0 8 4 15 10 15 5 0
12 11 16 25 3 14 10 25 15 25 5 0 9 7 9 15 0 8 5 15 10 15 6 0 14 8 17 18 4 9
13 23 20 30 7 7 13 31 13 53 0 28 4 39 15 39 10 0 15 10 15 31 0 17 7 37 15
45 8 9 15 33 15 54 0 21 5 40 10 42 6 2 13 43 17 91 3 48 10 87 14 87 5 0 9
32 9 70 0 39 -4 70 -9 70 -5 0 -11 44 -13 97 -2 66 -7 98 -15 101 -8 2 -13 23
-13 58 0 41 -4 54 -15 54 -11 0 -15 12 -15 44 0 25 -6 51 -14 58 -7 8 -15 38
-18 68 -3 30 -11 56 -17 58 -6 2 -11 10 -11 18 0 8 -7 14 -15 14 -11 0 -15 11
-15 39 0 32 -4 40 -22 45 -62 16 -173 -1 -141 -22 6 -4 15 -20 18 -35 4 -15
11 -27 16 -27 5 0 9 -13 9 -29 0 -16 7 -36 15 -45 8 -8 15 -28 15 -45 0 -21 5
-31 15 -31 11 0 15 -12 15 -50 0 -36 4 -52 15 -56 11 -5 15 -23 15 -75 0 -55
3 -69 15 -69 22 0 22 -384 0 -406 -9 -9 -15 -34 -15 -59 0 -24 -5 -45 -11 -47
-6 -2 -13 -26 -16 -53 -3 -28 -12 -54 -19 -58 -8 -4 -14 -19 -14 -32 0 -16 -6
-25 -15 -25 -8 0 -15 -7 -15 -15 0 -8 -4 -15 -10 -15 -5 0 -10 -11 -10 -25 0
-14 -7 -28 -15 -31 -8 -4 -15 -17 -15 -30 0 -15 -6 -24 -15 -24 -8 0 -15 -7
-15 -15 0 -8 -7 -15 -15 -15 -8 0 -15 -7 -15 -15 0 -8 -7 -15 -15 -15 -8 0
-15 -7 -15 -15 0 -8 -7 -15 -15 -15 -8 0 -15 -7 -15 -15 0 -8 -6 -15 -14 -15
-8 0 -17 -6 -20 -12 -5 -10 -7 -10 -12 0 -10 22 -34 13 -34 -13 0 -16 -6 -25
-15 -25 -8 0 -15 -7 -15 -15 0 -10 -10 -15 -30 -15 -20 0 -30 -5 -30 -15 0
-11 -11 -15 -40 -15 -29 0 -40 -4 -40 -15 0 -10 -10 -15 -30 -15 -20 0 -30 -5
-30 -15 0 -11 -11 -15 -40 -15 -22 0 -40 -4 -40 -9 0 -4 -26 -11 -57 -14 -32
-3 -59 -11 -61 -17 -5 -14 -422 -14 -422 0 0 6 -7 10 -15 10 -8 0 -15 7 -15
15 0 12 14 15 70 15 40 0 70 -4 70 -10 0 -5 14 -10 30 -10 17 0 30 5 30 10 0
6 53 10 139 10 90 0 141 4 143 11 2 5 22 13 46 16 23 3 42 9 42 13 0 4 19 10
42 13 24 3 44 11 46 16 2 6 15 11 28 11 15 0 24 6 24 15 0 11 11 15 40 15 27
0 43 5 46 15 4 8 17 15 30 15 15 0 24 6 24 15 0 8 7 15 15 15 8 0 15 7 15 15
0 9 9 15 25 15 18 0 26 7 31 25 3 14 12 25 20 25 8 0 14 7 14 15 0 8 7 15 15
15 8 0 15 7 15 15 0 8 7 15 15 15 8 0 15 7 15 15 0 8 5 15 10 15 6 0 10 7 10
15 0 8 7 15 15 15 10 0 15 10 15 30 0 20 5 30 15 30 9 0 15 9 15 24 0 13 7 26
15 30 10 3 15 19 15 46 0 29 4 40 15 40 12 0 15 14 15 69 0 47 4 71 12 74 17
5 18 304 2 315 -7 4 -13 44 -15 96 -3 60 -8 91 -17 94 -7 2 -12 21 -12 48 0
32 -4 44 -15 44 -11 0 -15 12 -15 45 0 33 -4 45 -15 45 -11 0 -15 11 -15 40 0
29 -4 40 -15 40 -10 0 -15 10 -15 30 0 17 -4 30 -10 30 -5 0 -10 6 -10 14 0
31 -30 46 -91 46 l-59 0 0 -45 c0 -25 4 -45 9 -45 5 0 12 -13 16 -30 4 -16 10
-30 15 -30 5 0 11 -13 15 -30 4 -16 11 -30 16 -30 5 0 9 -18 9 -40 0 -27 4
-40 14 -40 9 0 15 -17 18 -56 3 -31 9 -59 15 -62 6 -4 12 -36 15 -71 3 -37 10
-67 16 -69 19 -6 16 -279 -3 -298 -10 -10 -15 -35 -15 -69 0 -29 -5 -55 -11
-57 -5 -2 -13 -22 -16 -46 -3 -26 -11 -42 -19 -42 -8 0 -14 -7 -14 -15 0 -8
-4 -15 -9 -15 -5 0 -12 -11 -15 -25 -4 -14 -11 -25 -16 -25 -6 0 -10 -7 -10
-15 0 -8 -7 -15 -15 -15 -8 0 -15 -7 -15 -15 0 -8 -7 -15 -15 -15 -8 0 -15 -7
-15 -15 0 -8 -7 -15 -15 -15 -8 0 -15 -7 -15 -15 0 -8 -5 -15 -11 -15 -7 0
-22 -11 -34 -24 -12 -13 -32 -27 -43 -31 -12 -3 -22 -11 -22 -16 0 -5 -11 -9
-25 -9 -14 0 -28 -7 -31 -15 -4 -9 -19 -15 -35 -15 -19 0 -29 -5 -29 -15 0
-11 -11 -15 -39 -15 -22 0 -41 -5 -43 -12 -3 -7 -32 -14 -71 -16 -37 -2 -67
-8 -67 -13 0 -5 -7 -9 -15 -9 -13 0 -15 87 -15 725 l0 725 -57 0 c-32 0 -64
-4 -71 -8 -10 -7 -13 -151 -12 -725 l0 -717 -30 0 -30 0 0 705 c0 804 7 745
-85 745 -92 0 -85 59 -85 -745 0 -620 -2 -705 -15 -705 -12 0 -15 18 -15 99 0
70 -4 101 -12 105 -10 5 -10 7 0 12 15 7 17 124 2 124 -5 0 -10 11 -10 25 0
14 5 25 10 25 7 0 10 177 10 510 0 288 -4 510 -9 510 -5 0 -11 9 -14 20 -4 17
-14 20 -60 20 -94 0 -87 50 -87 -616 0 -383 -3 -584 -10 -584 -5 0 -10 7 -10
15 0 8 -7 15 -15 15 -13 0 -15 70 -15 569 0 504 -2 571 -16 585 -10 11 -34 16
-75 16 -51 0 -59 -2 -59 -19 0 -11 -6 -22 -12 -25 -10 -5 -10 -7 0 -12 9 -4
12 -109 12 -475 0 -410 -2 -469 -15 -469 -8 0 -15 4 -15 10 0 5 -11 12 -25 16
-14 3 -25 12 -25 20 0 9 -11 14 -30 14 -20 0 -30 5 -30 15 0 8 -7 15 -15 15
-8 0 -15 5 -15 10 0 6 -11 10 -25 10 -16 0 -25 6 -25 15 0 11 -12 15 -45 15
-33 0 -45 4 -45 15 0 10 -10 15 -30 15 -20 0 -30 5 -30 15 0 11 -11 15 -39 15
-22 0 -41 5 -43 11 -2 6 -28 14 -58 17 -30 2 -58 10 -62 16 -4 6 -50 12 -113
14 -58 2 -105 8 -105 13 0 5 -20 9 -45 9 l-45 0 0 350 c0 337 -1 351 -20 370
-22 22 -40 26 -40 10z m2280 -1880 c0 -5 7 -10 15 -10 8 0 15 -7 15 -15 0 -10
-10 -15 -29 -15 -16 0 -36 -7 -45 -15 -8 -8 -26 -15 -41 -15 -15 0 -33 -7 -41
-15 -9 -8 -29 -15 -45 -15 -16 0 -29 -4 -29 -9 0 -4 -25 -11 -57 -14 -31 -3
-59 -10 -62 -15 -3 -6 -49 -12 -101 -15 -55 -3 -96 -10 -98 -16 -5 -14 -242
-15 -242 -1 0 6 -7 10 -15 10 -8 0 -15 7 -15 15 0 13 27 15 184 15 151 0 187
3 200 15 10 10 35 15 80 15 52 0 66 3 66 15 0 11 12 15 45 15 25 0 45 4 45 10
0 5 18 13 40 16 22 4 40 10 40 14 0 5 14 11 30 15 17 4 30 11 30 16 0 5 7 9
15 9 8 0 15 -4 15 -10z"/>
<path d="M2250 3485 c0 -8 5 -15 10 -15 6 0 10 7 10 15 0 8 -4 15 -10 15 -5 0
-10 -7 -10 -15z"/>
<path d="M824 1325 c-7 -18 -60 -20 -68 -2 -5 10 -7 10 -12 0 -3 -7 -12 -13
-20 -13 -10 0 -14 -13 -14 -45 0 -33 4 -45 15 -45 8 0 15 -7 15 -15 0 -12 13
-15 60 -15 47 0 60 3 60 15 0 8 5 15 10 15 6 0 10 20 10 45 0 33 -4 45 -15 45
-8 0 -15 7 -15 15 0 8 -5 15 -10 15 -6 0 -13 -7 -16 -15z"/>
<path d="M3414 1325 c-7 -18 -60 -20 -68 -2 -5 10 -7 10 -12 0 -3 -7 -19 -13
-35 -13 -19 0 -29 -5 -29 -15 0 -8 7 -15 15 -15 11 0 15 -12 15 -45 l0 -45 58
0 c85 0 88 5 84 108 -2 41 -17 56 -28 27z"/>
<path d="M1820 1235 c0 -8 -7 -15 -15 -15 -9 0 -15 -9 -15 -25 0 -16 -6 -25
-15 -25 -8 0 -15 -7 -15 -15 0 -11 -11 -15 -39 -15 -35 0 -39 -3 -43 -27 -6
-46 1 -63 28 -63 28 0 27 10 24 -152 -2 -111 0 -128 14 -128 9 0 16 -7 16 -15
0 -12 19 -15 115 -15 70 0 115 4 115 10 0 6 7 10 15 10 11 0 15 12 15 45 0 41
-2 45 -25 45 -14 0 -25 -4 -25 -10 0 -15 -60 -12 -76 4 -20 20 -20 172 0 192
9 9 35 14 70 14 44 0 56 3 56 16 0 8 7 22 15 30 33 33 19 44 -55 44 l-70 0 0
55 0 55 -45 0 c-33 0 -45 -4 -45 -15z"/>
<path d="M4530 1210 c0 -5 5 -10 10 -10 6 0 10 5 10 10 0 6 -4 10 -10 10 -5 0
-10 -4 -10 -10z"/>
<path d="M1650 1180 c0 -5 5 -10 10 -10 6 0 10 5 10 10 0 6 -4 10 -10 10 -5 0
-10 -4 -10 -10z"/>
<path d="M1310 1155 c0 -8 -7 -15 -15 -15 -8 0 -15 -7 -15 -15 0 -20 -46 -20
-54 0 -5 13 -23 15 -103 13 -66 -2 -98 -7 -101 -15 -2 -7 3 -13 12 -13 9 0 16
-7 16 -15 0 -8 7 -15 15 -15 13 0 15 -20 15 -120 0 -107 -2 -122 -20 -140 -11
-11 -24 -20 -30 -20 -11 0 -13 -20 -4 -44 5 -13 25 -16 114 -16 103 0 108 1
114 23 3 14 0 26 -9 33 -22 16 -22 174 0 174 9 0 15 9 15 25 0 14 5 25 10 25
6 0 10 7 10 15 0 19 46 20 66 1 16 -16 21 -186 5 -186 -5 0 -12 -11 -15 -25
-4 -14 -11 -25 -16 -25 -6 0 -10 -13 -10 -30 l0 -30 115 0 115 0 0 30 c0 20
-5 30 -15 30 -13 0 -15 24 -15 155 0 131 -2 155 -15 155 -8 0 -15 7 -15 15 0
10 -10 15 -30 15 -20 0 -30 5 -30 15 0 12 -13 15 -55 15 -42 0 -55 -3 -55 -15z"/>
<path d="M2348 1163 c-10 -2 -18 -9 -18 -14 0 -5 -7 -9 -15 -9 -8 0 -15 -4
-15 -9 0 -5 -9 -13 -21 -16 -27 -9 -55 -37 -64 -64 -3 -12 -11 -21 -16 -21 -5
0 -9 -13 -9 -30 0 -20 -5 -30 -15 -30 -12 0 -15 -14 -15 -70 0 -56 3 -70 15
-70 10 0 15 -10 15 -29 0 -22 6 -30 25 -35 14 -4 25 -11 25 -16 0 -6 48 -10
120 -10 66 0 120 4 120 9 0 5 18 11 40 15 26 4 40 11 40 21 0 8 7 15 15 15 16
0 20 35 9 64 -7 17 -44 22 -44 6 0 -5 -9 -10 -19 -10 -11 0 -26 -7 -35 -15
-18 -18 -126 -21 -126 -4 0 7 -11 22 -25 35 -29 27 -32 50 -7 58 9 3 65 4 125
2 81 -3 107 0 107 9 0 7 7 15 15 19 11 4 15 21 15 61 0 42 -3 55 -15 55 -9 0
-15 9 -15 24 0 25 -16 36 -57 36 -13 0 -31 7 -39 15 -15 14 -76 19 -116 8z
m72 -97 c0 -8 5 -16 12 -18 7 -3 3 -13 -12 -28 -15 -15 -25 -19 -28 -12 -4 14
-32 16 -32 2 0 -5 -4 -10 -10 -10 -16 0 -11 38 8 59 20 23 62 27 62 7z"/>
<path d="M3014 1155 c-4 -8 -17 -15 -30 -15 -15 0 -24 -6 -24 -15 0 -8 -7 -15
-15 -15 -8 0 -15 -7 -15 -15 0 -8 -4 -15 -10 -15 -5 0 -10 14 -10 30 l0 30
-90 0 -90 0 0 -30 c0 -25 4 -30 25 -30 23 0 25 -4 25 -40 0 -22 -4 -40 -10
-40 -5 0 -10 -13 -10 -30 0 -16 5 -30 10 -30 6 0 10 -7 10 -15 0 -8 -4 -15
-10 -15 -5 0 -10 -23 -10 -50 0 -36 -4 -52 -15 -56 -9 -4 -15 -19 -15 -35 l0
-29 130 0 130 0 0 30 c0 27 -3 30 -30 30 -20 0 -30 5 -30 15 0 8 -4 15 -10 15
-5 0 -10 18 -10 40 0 22 5 40 10 40 6 0 10 14 10 30 0 20 5 30 15 30 9 0 15 9
15 25 0 17 6 26 18 27 35 3 57 -3 65 -17 4 -8 19 -15 32 -15 22 0 25 5 25 35
0 24 5 35 15 35 21 0 20 73 -1 94 -20 21 -93 21 -100 1z"/>
<path d="M3798 1163 c-10 -2 -18 -9 -18 -14 0 -5 -13 -9 -30 -9 -20 0 -30 -5
-30 -15 0 -9 -9 -15 -24 -15 -17 0 -26 -7 -30 -25 -4 -14 -11 -25 -16 -25 -6
0 -10 -7 -10 -16 0 -8 -7 -22 -15 -30 -11 -12 -15 -40 -15 -115 0 -81 3 -99
15 -99 8 0 15 -4 15 -10 0 -5 9 -19 20 -30 18 -18 33 -20 145 -20 69 0 125 4
125 9 0 5 18 11 40 15 36 6 40 9 40 36 0 20 5 30 15 30 21 0 19 12 -5 33 -23
19 -40 22 -40 7 0 -5 -11 -10 -25 -10 -14 0 -28 -7 -31 -15 -5 -11 -22 -15
-65 -15 -72 0 -99 21 -99 76 l0 37 105 -6 c116 -5 145 -2 145 19 0 8 7 14 15
14 11 0 15 11 15 40 0 29 -4 40 -15 40 -10 0 -15 10 -15 30 0 20 -5 30 -15 30
-8 0 -15 7 -15 15 0 9 -10 15 -26 15 -14 0 -32 7 -40 15 -15 14 -76 19 -116 8z
m66 -110 c-12 -45 -45 -68 -58 -40 -5 10 -7 10 -12 0 -7 -15 -34 -17 -34 -3 0
6 5 10 10 10 6 0 10 7 10 15 0 8 7 15 15 15 8 0 15 7 15 15 0 10 10 15 30 15
28 0 30 -2 24 -27z"/>
<path d="M4446 1155 c-8 -8 -18 -15 -23 -15 -11 0 -43 -37 -43 -50 0 -6 -4
-10 -10 -10 -5 0 -10 14 -10 30 l0 31 -102 -3 c-70 -2 -103 -7 -106 -15 -2 -7
3 -13 12 -13 9 0 16 -7 16 -15 0 -8 7 -15 15 -15 13 0 15 -21 15 -130 0 -109
-2 -130 -15 -130 -8 0 -15 -4 -15 -10 0 -5 -7 -10 -15 -10 -10 0 -15 -10 -15
-30 l0 -30 130 0 c109 0 130 2 130 15 0 8 7 15 15 15 27 0 16 18 -15 25 -16 4
-30 13 -30 21 0 8 -4 14 -10 14 -5 0 -10 25 -10 55 0 30 5 55 10 55 6 0 10 11
10 25 0 16 6 25 15 25 8 0 15 6 15 14 0 23 42 27 63 6 18 -21 44 -25 63 -12
14 9 26 114 18 147 -5 22 -12 25 -49 25 -25 0 -50 -6 -59 -15z"/>
<path d="M3390 1150 c0 -6 -32 -10 -75 -10 l-75 0 0 -30 c0 -20 5 -30 15 -30
13 0 15 -22 15 -140 l0 -140 -25 0 c-16 0 -25 -6 -25 -15 0 -8 5 -15 10 -15 6
0 10 -7 10 -15 0 -12 19 -15 115 -15 l115 0 0 30 c0 25 -4 30 -25 30 l-25 0 0
130 c0 80 4 130 10 130 6 0 10 18 10 40 0 29 -4 40 -15 40 -8 0 -15 5 -15 10
0 6 -4 10 -10 10 -5 0 -10 -4 -10 -10z"/>
<path d="M673 1133 c-7 -2 -13 -16 -13 -29 0 -19 5 -24 25 -24 l25 0 0 -125
c0 -104 -2 -125 -15 -125 -8 0 -15 -7 -15 -15 0 -8 -7 -15 -15 -15 -10 0 -15
-10 -15 -30 l0 -30 115 0 c96 0 115 3 115 15 0 8 7 15 15 15 24 0 17 19 -9 26
-14 3 -27 13 -29 22 -2 10 -2 86 1 170 l5 152 -89 -1 c-49 0 -95 -3 -101 -6z"/>
<path d="M2370 900 c0 -5 5 -10 10 -10 6 0 10 5 10 10 0 6 -4 10 -10 10 -5 0
-10 -4 -10 -10z"/>
<path d="M4070 840 c0 -5 5 -10 10 -10 6 0 10 5 10 10 0 6 -4 10 -10 10 -5 0
-10 -4 -10 -10z"/>
</g>
</svg>
